<?xml version="1.0" encoding="UTF-8"?>
<svg width="33px" height="26px" viewBox="0 0 33 26" version="1.1" xmlns="http://www.w3.org/2000/svg" xmlns:xlink="http://www.w3.org/1999/xlink">
    <title>Group 7</title>
    <g id="UI" stroke="none" stroke-width="1" fill="none" fill-rule="evenodd">
        <g id="Landing_main" transform="translate(-818.000000, -2803.000000)">
            <g id="Group-10-Copy" transform="translate(818.000000, 2603.000000)">
                <g id="Group-8" transform="translate(0.000000, 198.000000)">
                    <g id="Group-7" transform="translate(0.000000, 2.000000)">
                        <path d="M13,0 C20.1797017,0 26,5.82029825 26,13 C26,20.1797017 20.1797017,26 13,26 C5.82029825,26 0,20.1797017 0,13 C0,5.82029825 5.82029825,0 13,0 Z M14,2 C8.4771525,2 4,6.4771525 4,12 C4,17.5228475 8.4771525,22 14,22 C19.5228475,22 24,17.5228475 24,12 C24,6.4771525 19.5228475,2 14,2 Z" id="Combined-Shape" fill="#000000"></path>
                        <polygon id="Path-12" stroke="#FFFFFF" stroke-width="1.5" fill="#828282" points="5 11.3064554 13.734866 20 31 2.8165409 29.6060927 2 13.734866 14.0312657 9.16091313 9.54661336"></polygon>
                    </g>
                </g>
            </g>
        </g>
    </g>
</svg>